# xmcd CD database file
# Copyright (C) 1996 Ti Kan
#
# Track frame offsets:
#  182
#  21650
#  48655
#  66655
#  92950
#  124547
#  146132
#  167320
#  192962
#  209397
#  238590
#
# Disc length: 3484 seconds
#
# Revision: 2
# Processed by: cddbd v1.4PL0 Copyright (c) Steve Scherf et al.
# Submitted via: Gronk 1.4
#
DISCID=a70d9a0b
DTITLE=Byther Smith - Addressing The Nation With The Blues
DYEAR=1900
DGENRE=blues
TTITLE0=Hello Mrs. Brown
TTITLE1=I Was Coming Home
TTITLE2=Looking For A Woman
TTITLE3=Play The Blues On The Moon
TTITLE4=What Have I Done
TTITLE5=You Should Be Proud Of Your Daughter
TTITLE6=What Is This
TTITLE7=Addressing The Nation With The Blues
TTITLE8=Movin' On
TTITLE9=I Wish My Mother Was Here
TTITLE10=Put Your Arms Around Me
EXTD=JSP CD 254\n\nByther Smith:  guitar and vocals\nTim McKinley:  piano
EXTD=and keyboards\nCharles Fisher:  rhythm guitar\nManwell Burr:  saxop
EXTD=hone\nBruce Feigen:  bass\nGeorge Hawkins:  drums\n\nRecorded at Sot
EXTD=o Sound, Chicago\n\nSubmitted 7/1/97\n[Jmccoy@efn.org]\n\n
EXTT0=
EXTT1=
EXTT2=
EXTT3=
EXTT4=
EXTT5=
EXTT6=
EXTT7=
EXTT8=
EXTT9=
EXTT10=
PLAYORDER=
